<svg width="72" height="72" viewBox="0 0 72 72" fill="none" xmlns="http://www.w3.org/2000/svg">
<rect width="72" height="72" rx="16" fill="#ECEBFF"/>
<path d="M47.85 22.6367C47.6656 21.8442 47.3219 21.0974 46.8398 20.4419C46.3577 19.7864 45.7474 19.2358 45.0458 18.8235C44.3443 18.4113 43.5662 18.1461 42.7589 18.044C41.9517 17.9419 41.1321 18.0051 40.35 18.2297L37.764 18.9692C37.1089 19.1575 36.5055 19.493 36 19.9502C35.4945 19.493 34.8911 19.1575 34.236 18.9692L31.65 18.2297C30.8684 18.0062 30.0496 17.944 29.2432 18.0466C28.4368 18.1493 27.6596 18.4148 26.9589 18.8269C26.2583 19.239 25.6486 19.7892 25.1671 20.4441C24.6855 21.0991 24.342 21.845 24.1575 22.6367C22.4322 22.9506 20.8714 23.8591 19.7465 25.2044C18.6216 26.5496 18.0036 28.2466 18 30.0002V40.5002C18.0024 42.4886 18.7933 44.3948 20.1993 45.8008C21.6053 47.2069 23.5116 47.9978 25.5 48.0002H34.5V51.0002H30C29.6022 51.0002 29.2206 51.1582 28.9393 51.4395C28.658 51.7208 28.5 52.1024 28.5 52.5002C28.5 52.898 28.658 53.2795 28.9393 53.5608C29.2206 53.8421 29.6022 54.0002 30 54.0002H42C42.3978 54.0002 42.7794 53.8421 43.0607 53.5608C43.342 53.2795 43.5 52.898 43.5 52.5002C43.5 52.1024 43.342 51.7208 43.0607 51.4395C42.7794 51.1582 42.3978 51.0002 42 51.0002H37.5V48.0002H46.5C48.4884 47.9978 50.3947 47.2069 51.8007 45.8008C53.2067 44.3948 53.9976 42.4886 54 40.5002V30.0002C53.9967 28.2476 53.3798 26.5516 52.2564 25.2065C51.1329 23.8613 49.5739 22.9521 47.85 22.6367ZM37.5 23.2967C37.5001 22.9709 37.6063 22.654 37.8025 22.394C37.9987 22.1339 38.2743 21.9448 38.5875 21.8552L41.175 21.1157C41.6215 20.988 42.0916 20.9657 42.5482 21.0505C43.0048 21.1354 43.4355 21.3251 43.8063 21.6048C44.1771 21.8844 44.4779 22.2463 44.6851 22.662C44.8922 23.0777 45 23.5357 45 24.0002V29.9072C44.9979 30.5581 44.7848 31.1908 44.3927 31.7104C44.0005 32.2299 43.4504 32.6083 42.825 32.7887L37.5 34.3097V23.2967ZM28.2 21.6002C28.5701 21.3216 28.9999 21.1328 29.4554 21.0487C29.911 20.9646 30.3798 20.9875 30.825 21.1157L33.4125 21.8552C33.7257 21.9448 34.0013 22.1339 34.1975 22.394C34.3937 22.654 34.4999 22.9709 34.5 23.2967V34.3097L29.175 32.7887C28.5496 32.6083 27.9995 32.2299 27.6073 31.7104C27.2152 31.1908 27.0021 30.5581 27 29.9072V24.0002C26.9985 23.5342 27.1062 23.0743 27.3146 22.6575C27.523 22.2407 27.8263 21.8786 28.2 21.6002ZM51 40.5002C51 41.6937 50.5259 42.8382 49.682 43.6822C48.8381 44.5261 47.6935 45.0002 46.5 45.0002H25.5C24.3065 45.0002 23.1619 44.5261 22.318 43.6822C21.4741 42.8382 21 41.6937 21 40.5002V30.0002C21.0038 29.0728 21.2941 28.1692 21.8311 27.4131C22.3681 26.657 23.1256 26.0853 24 25.7762V29.9072C24.0037 31.2097 24.4296 32.4759 25.2139 33.5158C25.9983 34.5557 27.0987 35.3132 28.35 35.6747L33.5265 37.1552C35.1443 37.6163 36.8587 37.6163 38.4765 37.1552L43.653 35.6747C44.9038 35.3127 46.0035 34.5549 46.7873 33.5151C47.571 32.4752 47.9965 31.2093 48 29.9072V25.7762C48.8744 26.0853 49.6319 26.657 50.1689 27.4131C50.7059 28.1692 50.9962 29.0728 51 30.0002V40.5002Z" fill="#2374EE"/>
</svg>
