<svg width="48" height="48" viewBox="0 0 48 48" fill="none" xmlns="http://www.w3.org/2000/svg">
<path d="M14 28C14 28.5304 13.7893 29.0391 13.4142 29.4142C13.0391 29.7893 12.5304 30 12 30H10C9.46957 30 8.96086 29.7893 8.58579 29.4142C8.21071 29.0391 8 28.5304 8 28C8 27.4696 8.21071 26.9609 8.58579 26.5858C8.96086 26.2107 9.46957 26 10 26H12C12.5304 26 13.0391 26.2107 13.4142 26.5858C13.7893 26.9609 14 27.4696 14 28ZM22 26H20C19.4696 26 18.9609 26.2107 18.5858 26.5858C18.2107 26.9609 18 27.4696 18 28C18 28.5304 18.2107 29.0391 18.5858 29.4142C18.9609 29.7893 19.4696 30 20 30H22C22.5304 30 23.0391 29.7893 23.4142 29.4142C23.7893 29.0391 24 28.5304 24 28C24 27.4696 23.7893 26.9609 23.4142 26.5858C23.0391 26.2107 22.5304 26 22 26ZM12 34H10C9.46957 34 8.96086 34.2107 8.58579 34.5858C8.21071 34.9609 8 35.4696 8 36C8 36.5304 8.21071 37.0391 8.58579 37.4142C8.96086 37.7893 9.46957 38 10 38H12C12.5304 38 13.0391 37.7893 13.4142 37.4142C13.7893 37.0391 14 36.5304 14 36C14 35.4696 13.7893 34.9609 13.4142 34.5858C13.0391 34.2107 12.5304 34 12 34ZM22 34H20C19.4696 34 18.9609 34.2107 18.5858 34.5858C18.2107 34.9609 18 35.4696 18 36C18 36.5304 18.2107 37.0391 18.5858 37.4142C18.9609 37.7893 19.4696 38 20 38H22C22.5304 38 23.0391 37.7893 23.4142 37.4142C23.7893 37.0391 24 36.5304 24 36C24 35.4696 23.7893 34.9609 23.4142 34.5858C23.0391 34.2107 22.5304 34 22 34ZM12 10H10C9.46957 10 8.96086 10.2107 8.58579 10.5858C8.21071 10.9609 8 11.4696 8 12C8 12.5304 8.21071 13.0391 8.58579 13.4142C8.96086 13.7893 9.46957 14 10 14H12C12.5304 14 13.0391 13.7893 13.4142 13.4142C13.7893 13.0391 14 12.5304 14 12C14 11.4696 13.7893 10.9609 13.4142 10.5858C13.0391 10.2107 12.5304 10 12 10ZM22 10H20C19.4696 10 18.9609 10.2107 18.5858 10.5858C18.2107 10.9609 18 11.4696 18 12C18 12.5304 18.2107 13.0391 18.5858 13.4142C18.9609 13.7893 19.4696 14 20 14H22C22.5304 14 23.0391 13.7893 23.4142 13.4142C23.7893 13.0391 24 12.5304 24 12C24 11.4696 23.7893 10.9609 23.4142 10.5858C23.0391 10.2107 22.5304 10 22 10ZM12 18H10C9.46957 18 8.96086 18.2107 8.58579 18.5858C8.21071 18.9609 8 19.4696 8 20C8 20.5304 8.21071 21.0391 8.58579 21.4142C8.96086 21.7893 9.46957 22 10 22H12C12.5304 22 13.0391 21.7893 13.4142 21.4142C13.7893 21.0391 14 20.5304 14 20C14 19.4696 13.7893 18.9609 13.4142 18.5858C13.0391 18.2107 12.5304 18 12 18ZM22 18H20C19.4696 18 18.9609 18.2107 18.5858 18.5858C18.2107 18.9609 18 19.4696 18 20C18 20.5304 18.2107 21.0391 18.5858 21.4142C18.9609 21.7893 19.4696 22 20 22H22C22.5304 22 23.0391 21.7893 23.4142 21.4142C23.7893 21.0391 24 20.5304 24 20C24 19.4696 23.7893 18.9609 23.4142 18.5858C23.0391 18.2107 22.5304 18 22 18ZM48 20V38C47.9968 40.6512 46.9422 43.1929 45.0676 45.0676C43.1929 46.9422 40.6512 47.9968 38 48H10C7.34881 47.9968 4.80712 46.9422 2.93244 45.0676C1.05776 43.1929 0.00317572 40.6512 0 38L0 10C0.00317572 7.34881 1.05776 4.80712 2.93244 2.93244C4.80712 1.05776 7.34881 0.00317572 10 0L22 0C24.6512 0.00317572 27.1929 1.05776 29.0676 2.93244C30.9422 4.80712 31.9968 7.34881 32 10H38C40.6512 10.0032 43.1929 11.0578 45.0676 12.9324C46.9422 14.8071 47.9968 17.3488 48 20ZM10 44H28V10C28 8.4087 27.3679 6.88258 26.2426 5.75736C25.1174 4.63214 23.5913 4 22 4H10C8.4087 4 6.88258 4.63214 5.75736 5.75736C4.63214 6.88258 4 8.4087 4 10V38C4 39.5913 4.63214 41.1174 5.75736 42.2426C6.88258 43.3679 8.4087 44 10 44ZM44 20C44 18.4087 43.3679 16.8826 42.2426 15.7574C41.1174 14.6321 39.5913 14 38 14H32V44H38C39.5913 44 41.1174 43.3679 42.2426 42.2426C43.3679 41.1174 44 39.5913 44 38V20ZM38 26C37.6044 26 37.2178 26.1173 36.8889 26.3371C36.56 26.5568 36.3036 26.8692 36.1522 27.2346C36.0009 27.6001 35.9613 28.0022 36.0384 28.3902C36.1156 28.7781 36.3061 29.1345 36.5858 29.4142C36.8655 29.6939 37.2219 29.8844 37.6098 29.9616C37.9978 30.0387 38.3999 29.9991 38.7654 29.8478C39.1308 29.6964 39.4432 29.44 39.6629 29.1111C39.8827 28.7822 40 28.3956 40 28C40 27.4696 39.7893 26.9609 39.4142 26.5858C39.0391 26.2107 38.5304 26 38 26ZM38 34C37.6044 34 37.2178 34.1173 36.8889 34.3371C36.56 34.5568 36.3036 34.8692 36.1522 35.2346C36.0009 35.6001 35.9613 36.0022 36.0384 36.3902C36.1156 36.7781 36.3061 37.1345 36.5858 37.4142C36.8655 37.6939 37.2219 37.8844 37.6098 37.9616C37.9978 38.0387 38.3999 37.9991 38.7654 37.8478C39.1308 37.6964 39.4432 37.44 39.6629 37.1111C39.8827 36.7822 40 36.3956 40 36C40 35.4696 39.7893 34.9609 39.4142 34.5858C39.0391 34.2107 38.5304 34 38 34ZM38 18C37.6044 18 37.2178 18.1173 36.8889 18.3371C36.56 18.5568 36.3036 18.8692 36.1522 19.2346C36.0009 19.6001 35.9613 20.0022 36.0384 20.3902C36.1156 20.7781 36.3061 21.1345 36.5858 21.4142C36.8655 21.6939 37.2219 21.8844 37.6098 21.9616C37.9978 22.0387 38.3999 21.9991 38.7654 21.8478C39.1308 21.6964 39.4432 21.44 39.6629 21.1111C39.8827 20.7822 40 20.3956 40 20C40 19.4696 39.7893 18.9609 39.4142 18.5858C39.0391 18.2107 38.5304 18 38 18Z" fill="#063852"/>
</svg>
