<svg width="72" height="72" viewBox="0 0 72 72" fill="none" xmlns="http://www.w3.org/2000/svg">
<rect width="72" height="72" rx="16" fill="#ECEBFF"/>
<path d="M51.0853 25.845L40.0243 20.5755C37.5895 19.1211 34.5591 19.0953 32.0998 20.508L20.9143 25.845C20.8724 25.866 20.8288 25.8885 20.7883 25.9125C18.1339 27.4302 17.2124 30.8125 18.7302 33.4669C19.2446 34.3668 20.0014 35.1041 20.9143 35.595L23.9999 37.065V44.415C24.0017 47.7016 26.1403 50.6052 29.2784 51.582C31.4622 52.2138 33.7266 52.5231 35.9999 52.5C38.2728 52.5255 40.5372 52.2188 42.7214 51.5895C45.8595 50.6128 47.9981 47.7091 47.9999 44.4225V37.062L50.9999 35.628V47.9999C50.9999 48.8284 51.6715 49.4999 52.4999 49.4999C53.3283 49.4999 53.9999 48.8284 53.9999 47.9999V29.9999C54.0099 28.2385 52.6191 26.6114 51.0853 25.845ZM44.9998 44.4225C45.0006 46.3884 43.7251 48.1273 41.8498 48.717C39.9482 49.2604 37.9775 49.5241 35.9998 49.5C34.0221 49.5241 32.0515 49.2604 30.1498 48.717C28.2745 48.1272 26.9991 46.3884 26.9998 44.4225V38.4945L31.9753 40.8646C33.203 41.5936 34.6051 41.9766 36.0329 41.973C37.3919 41.9827 38.728 41.6229 39.8984 40.9321L44.9998 38.4945V44.4225ZM49.7998 32.8875L38.4868 38.2875C36.9095 39.206 34.9543 39.1799 33.4018 38.22L22.3333 32.955C21.0996 32.2897 20.6387 30.7502 21.304 29.5165C21.529 29.0992 21.8664 28.7534 22.2778 28.518L33.5203 23.148C35.0982 22.2315 37.0523 22.2575 38.6053 23.2155L49.6663 28.485C50.4798 28.9367 50.9887 29.7896 50.9998 30.72C51.0013 31.6013 50.5475 32.4209 49.7998 32.8875Z" fill="#2374EE"/>
</svg>
