<svg width="37" height="36" viewBox="0 0 37 36" fill="none" xmlns="http://www.w3.org/2000/svg">
<ellipse cx="18.247" cy="18" rx="18.247" ry="18" fill="#FFB700"/>
<path opacity="0.36" d="M7.00635 12.1501L9.93891 9.73934L13.849 10.2215L18.2478 13.5965L26.068 9.2572L29.4893 11.6679L29.0005 25.1679L18.2478 27.5786L7.00635 24.6858V12.1501Z" fill="white"/>
<path d="M27.3657 8.98598C27.3657 8.98598 27.1607 8.85235 27.1007 8.8341C27.0138 8.80773 26.7414 8.77504 26.7414 8.77504C23.4651 8.73696 20.3455 10.1563 18.248 12.6394C16.1505 10.1563 13.0309 8.73696 9.7546 8.77504C9.7546 8.77504 9.48303 8.75605 9.39536 8.77504C9.33409 8.78822 9.1302 8.92691 9.1302 8.92691L6.56421 11.1544C6.36311 11.3276 6.25555 11.5836 6.2734 11.8463V25.2113C6.2734 25.6773 6.65638 26.055 7.12873 26.055C14.1082 26.055 17.6717 28.819 17.7092 28.8394C17.8339 28.9077 18.0677 29.0327 18.3885 29.0326C18.5966 29.0325 18.8314 28.8854 18.9635 28.7981C19.8912 28.1857 23.3569 26.1899 29.2903 26.1899C29.7628 26.1899 30.1457 25.8121 30.1457 25.3462V11.8462C30.1454 11.6038 30.0395 11.3734 29.855 11.2134L27.3657 8.98598ZM25.946 10.4625V22.1738C23.3094 22.3869 20.8581 23.5959 19.1034 25.5488V14.3185C20.6778 12.0806 23.1923 10.6638 25.946 10.4625ZM10.5501 10.4625C13.3011 10.645 15.8189 12.0513 17.3927 14.2847V25.5488C15.6379 23.5959 13.1866 22.3869 10.5501 22.1738V10.4625ZM7.98406 12.226L8.83939 11.4835V22.9839C8.83939 23.4499 9.22237 23.8276 9.69472 23.8276C11.5917 23.8134 13.4373 24.4353 14.9293 25.591C12.6908 24.8391 10.3482 24.4322 7.98406 24.3844V12.226ZM28.512 24.3844C26.1479 24.4322 23.8052 24.8391 21.5667 25.5909C23.0587 24.4351 24.9044 23.8133 26.8013 23.8275C27.2737 23.8275 27.6567 23.4498 27.6567 22.9838V11.4835L28.512 12.226V24.3844Z" fill="white"/>
</svg>
