<svg width="72" height="72" viewBox="0 0 72 72" fill="none" xmlns="http://www.w3.org/2000/svg">
<rect width="72" height="72" rx="16" fill="white"/>
<path d="M31.5 34.5C31.5 34.1022 31.658 33.7206 31.9393 33.4393C32.2206 33.158 32.6022 33 33 33H39C39.3978 33 39.7794 33.158 40.0607 33.4393C40.342 33.7206 40.5 34.1022 40.5 34.5C40.5 34.8978 40.342 35.2794 40.0607 35.5607C39.7794 35.842 39.3978 36 39 36H33C32.6022 36 32.2206 35.842 31.9393 35.5607C31.658 35.2794 31.5 34.8978 31.5 34.5ZM54 45V46.5C53.9976 48.4884 53.2067 50.3947 51.8007 51.8007C50.3947 53.2067 48.4884 53.9976 46.5 54H25.5C23.5116 53.9976 21.6053 53.2067 20.1993 51.8007C18.7933 50.3947 18.0024 48.4884 18 46.5V45C18.0022 43.2717 18.6001 41.597 19.6931 40.2581C20.786 38.9193 22.3071 37.9981 24 37.65V36C24.0026 33.8917 24.5606 31.8212 25.6179 29.9971C26.6752 28.1731 28.1943 26.6597 30.0225 25.6095C30.0195 25.572 30 25.539 30 25.5V24C30 22.4087 30.6321 20.8826 31.7574 19.7574C32.8826 18.6321 34.4087 18 36 18C37.5913 18 39.1174 18.6321 40.2426 19.7574C41.3679 20.8826 42 22.4087 42 24V25.5C42 25.539 41.9805 25.572 41.9775 25.6095C43.8057 26.6597 45.3248 28.1731 46.3821 29.9971C47.4394 31.8212 47.9974 33.8917 48 36V37.65C49.6929 37.9981 51.214 38.9193 52.3069 40.2581C53.3999 41.597 53.9978 43.2717 54 45ZM33 24.3945C34.9654 23.8685 37.0346 23.8685 39 24.3945V24C39 23.2044 38.6839 22.4413 38.1213 21.8787C37.5587 21.3161 36.7956 21 36 21C35.2044 21 34.4413 21.3161 33.8787 21.8787C33.3161 22.4413 33 23.2044 33 24V24.3945ZM27 42.8025C28.1698 41.5992 29.569 40.6427 31.1148 39.9896C32.6607 39.3365 34.3218 38.9999 36 38.9999C37.6782 38.9999 39.3393 39.3365 40.8852 39.9896C42.431 40.6427 43.8302 41.5992 45 42.8025V36C45 33.6131 44.0518 31.3239 42.364 29.636C40.6761 27.9482 38.3869 27 36 27C33.6131 27 31.3239 27.9482 29.636 29.636C27.9482 31.3239 27 33.6131 27 36V42.8025ZM25.5 51H25.539C24.5463 49.7094 24.0055 48.1282 24 46.5V40.776C23.1256 41.0851 22.3681 41.6568 21.8311 42.413C21.2941 43.1691 21.0038 44.0726 21 45V46.5C21 47.6935 21.4741 48.8381 22.318 49.682C23.1619 50.5259 24.3065 51 25.5 51ZM40.5 51C41.4775 50.9954 42.427 50.6727 43.2048 50.0805C43.9826 49.4884 44.5464 48.6591 44.811 47.718C44.0516 46.0157 42.8153 44.5699 41.2517 43.5552C39.6881 42.5406 37.864 42.0007 36 42.0007C34.136 42.0007 32.3119 42.5406 30.7483 43.5552C29.1847 44.5699 27.9484 46.0157 27.189 47.718C27.4536 48.6591 28.0174 49.4884 28.7952 50.0805C29.573 50.6727 30.5225 50.9954 31.5 51H40.5ZM51 45C50.9962 44.0726 50.7059 43.1691 50.1689 42.413C49.6319 41.6568 48.8744 41.0851 48 40.776V46.5C47.9945 48.1282 47.4537 49.7094 46.461 51H46.5C47.6935 51 48.8381 50.5259 49.682 49.682C50.5259 48.8381 51 47.6935 51 46.5V45Z" fill="#2374EE"/>
</svg>
