<svg width="48" height="48" viewBox="0 0 48 48" fill="none" xmlns="http://www.w3.org/2000/svg">
<g clip-path="url(#clip0_29495_3611)">
<path d="M38 11.9999H28.642C27.8448 11.4317 26.9489 11.0167 26 10.7759V9.99988L33.06 6.69588C33.3494 6.51652 33.5882 6.26623 33.7539 5.96873C33.9195 5.67124 34.0064 5.33638 34.0064 4.99588C34.0064 4.65539 33.9195 4.32053 33.7539 4.02304C33.5882 3.72554 33.3494 3.47525 33.06 3.29589L26.66 0.295889C26.1603 0.0623928 25.6097 -0.0410779 25.0593 -0.00491907C24.509 0.0312397 23.9767 0.205856 23.5118 0.502722C23.047 0.799587 22.6646 1.20908 22.4003 1.69319C22.136 2.1773 21.9983 2.72033 22 3.27189V10.7759C21.0516 11.0163 20.1563 11.4314 19.36 11.9999H10C7.34881 12.0031 4.80711 13.0576 2.93244 14.9323C1.05776 16.807 0.00317571 19.3487 0 21.9999L0 41.9999C0 43.5912 0.632141 45.1173 1.75736 46.2425C2.88258 47.3677 4.4087 47.9999 6 47.9999H42C43.5913 47.9999 45.1174 47.3677 46.2426 46.2425C47.3678 45.1173 48 43.5912 48 41.9999V21.9999C47.9968 19.3487 46.9422 16.807 45.0675 14.9323C43.1929 13.0576 40.6512 12.0031 38 11.9999ZM43.632 19.9999H39.314C37.7236 19.9958 36.199 19.364 35.072 18.2419L32.828 15.9999H38C39.2365 16.005 40.4412 16.392 41.4494 17.1081C42.4575 17.8241 43.2198 18.8341 43.632 19.9999ZM10 15.9999H15.172L12.928 18.2419C11.8009 19.364 10.2764 19.9958 8.686 19.9999H4.368C4.78016 18.8341 5.54246 17.8241 6.5506 17.1081C7.55874 16.392 8.76347 16.005 10 15.9999ZM26 43.9999H22V37.9999C22 37.4694 22.2107 36.9607 22.5858 36.5856C22.9608 36.2106 23.4696 35.9999 24 35.9999C24.5304 35.9999 25.0391 36.2106 25.4142 36.5856C25.7893 36.9607 26 37.4694 26 37.9999V43.9999ZM42 43.9999H30V37.9999C30 36.4086 29.3678 34.8824 28.2426 33.7572C27.1174 32.632 25.5913 31.9999 24 31.9999C22.4087 31.9999 20.8826 32.632 19.7573 33.7572C18.6321 34.8824 18 36.4086 18 37.9999V43.9999H6C5.46956 43.9999 4.96086 43.7891 4.58578 43.4141C4.21071 43.039 4 42.5303 4 41.9999V23.9999H8.686C9.99963 24.0031 11.3009 23.7458 12.5144 23.2429C13.728 22.7399 14.8297 22.0014 15.756 21.0699L21.172 15.6559C21.9221 14.906 22.9393 14.4847 24 14.4847C25.0606 14.4847 26.0779 14.906 26.828 15.6559L32.244 21.0699C33.1702 22.0014 34.272 22.7399 35.4856 23.2429C36.6991 23.7458 38.0003 24.0031 39.314 23.9999H44V41.9999C44 42.5303 43.7893 43.039 43.4142 43.4141C43.0391 43.7891 42.5304 43.9999 42 43.9999ZM14 29.9999C14 30.5303 13.7893 31.039 13.4142 31.4141C13.0391 31.7892 12.5304 31.9999 12 31.9999H10C9.46956 31.9999 8.96086 31.7892 8.58578 31.4141C8.21071 31.039 8 30.5303 8 29.9999C8 29.4694 8.21071 28.9607 8.58578 28.5857C8.96086 28.2106 9.46956 27.9999 10 27.9999H12C12.5304 27.9999 13.0391 28.2106 13.4142 28.5857C13.7893 28.9607 14 29.4694 14 29.9999ZM14 37.9999C14 38.5303 13.7893 39.039 13.4142 39.4141C13.0391 39.7891 12.5304 39.9999 12 39.9999H10C9.46956 39.9999 8.96086 39.7891 8.58578 39.4141C8.21071 39.039 8 38.5303 8 37.9999C8 37.4694 8.21071 36.9607 8.58578 36.5856C8.96086 36.2106 9.46956 35.9999 10 35.9999H12C12.5304 35.9999 13.0391 36.2106 13.4142 36.5856C13.7893 36.9607 14 37.4694 14 37.9999ZM40 29.9999C40 30.5303 39.7893 31.039 39.4142 31.4141C39.0391 31.7892 38.5304 31.9999 38 31.9999H36C35.4696 31.9999 34.9608 31.7892 34.5858 31.4141C34.2107 31.039 34 30.5303 34 29.9999C34 29.4694 34.2107 28.9607 34.5858 28.5857C34.9608 28.2106 35.4696 27.9999 36 27.9999H38C38.5304 27.9999 39.0391 28.2106 39.4142 28.5857C39.7893 28.9607 40 29.4694 40 29.9999ZM40 37.9999C40 38.5303 39.7893 39.039 39.4142 39.4141C39.0391 39.7891 38.5304 39.9999 38 39.9999H36C35.4696 39.9999 34.9608 39.7891 34.5858 39.4141C34.2107 39.039 34 38.5303 34 37.9999C34 37.4694 34.2107 36.9607 34.5858 36.5856C34.9608 36.2106 35.4696 35.9999 36 35.9999H38C38.5304 35.9999 39.0391 36.2106 39.4142 36.5856C39.7893 36.9607 40 37.4694 40 37.9999ZM28 23.9999C28 24.791 27.7654 25.5644 27.3259 26.2221C26.8863 26.8799 26.2616 27.3926 25.5307 27.6954C24.7998 27.9981 23.9956 28.0774 23.2196 27.923C22.4437 27.7687 21.731 27.3877 21.1716 26.8283C20.6122 26.2689 20.2312 25.5562 20.0768 24.7802C19.9225 24.0043 20.0017 23.2 20.3045 22.4691C20.6072 21.7382 21.1199 21.1135 21.7777 20.674C22.4355 20.2345 23.2089 19.9999 24 19.9999C25.0609 19.9999 26.0783 20.4213 26.8284 21.1714C27.5786 21.9216 28 22.939 28 23.9999Z" fill="#063852"/>
</g>
<defs>
<clipPath id="clip0_29495_3611">
<rect width="48" height="48" fill="white"/>
</clipPath>
</defs>
</svg>
