<svg width="48" height="48" viewBox="0 0 48 48" fill="none" xmlns="http://www.w3.org/2000/svg">
<path d="M15 26C13.22 26 11.4799 25.4722 9.99987 24.4832C8.51982 23.4943 7.36627 22.0887 6.68508 20.4442C6.0039 18.7996 5.82567 16.99 6.17293 15.2442C6.5202 13.4984 7.37737 11.8947 8.63604 10.636C9.89471 9.37737 11.4984 8.5202 13.2442 8.17294C14.99 7.82567 16.7996 8.0039 18.4442 8.68509C20.0887 9.36628 21.4943 10.5198 22.4832 11.9999C23.4722 13.4799 24 15.22 24 17C23.9974 19.3861 23.0483 21.6738 21.361 23.361C19.6738 25.0483 17.3861 25.9974 15 26ZM15 12C14.0111 12 13.0444 12.2932 12.2221 12.8427C11.3999 13.3921 10.759 14.173 10.3806 15.0866C10.0022 16.0002 9.90315 17.0056 10.0961 17.9755C10.289 18.9454 10.7652 19.8363 11.4645 20.5355C12.1637 21.2348 13.0546 21.711 14.0245 21.9039C14.9945 22.0969 15.9998 21.9978 16.9134 21.6194C17.827 21.241 18.6079 20.6001 19.1573 19.7779C19.7068 18.9556 20 17.9889 20 17C20 15.6739 19.4732 14.4022 18.5355 13.4645C17.5979 12.5268 16.3261 12 15 12ZM30 46V45C30 41.0218 28.4196 37.2064 25.6066 34.3934C22.7936 31.5804 18.9782 30 15 30C11.0218 30 7.20644 31.5804 4.3934 34.3934C1.58035 37.2064 0 41.0218 0 45L0 46C0 46.5304 0.210714 47.0391 0.585786 47.4142C0.960859 47.7893 1.46957 48 2 48C2.53043 48 3.03914 47.7893 3.41421 47.4142C3.78929 47.0391 4 46.5304 4 46V45C4 42.0826 5.15893 39.2847 7.22183 37.2218C9.28473 35.1589 12.0826 34 15 34C17.9174 34 20.7153 35.1589 22.7782 37.2218C24.8411 39.2847 26 42.0826 26 45V46C26 46.5304 26.2107 47.0391 26.5858 47.4142C26.9609 47.7893 27.4696 48 28 48C28.5304 48 29.0391 47.7893 29.4142 47.4142C29.7893 47.0391 30 46.5304 30 46ZM48 36C47.9999 33.2974 47.2176 30.6525 45.7474 28.3847C44.2772 26.1169 42.1821 24.3232 39.7149 23.2199C37.2477 22.1167 34.5139 21.7512 31.8435 22.1675C29.1731 22.5838 26.6803 23.7641 24.666 25.566C24.4675 25.7404 24.3056 25.9524 24.1895 26.1897C24.0734 26.4271 24.0056 26.6851 23.9898 26.9488C23.974 27.2125 24.0106 27.4768 24.0975 27.7263C24.1844 27.9758 24.3199 28.2056 24.4961 28.4024C24.6723 28.5993 24.8858 28.7592 25.1242 28.8731C25.3627 28.987 25.6213 29.0525 25.8851 29.0658C26.149 29.0792 26.4129 29.0401 26.6616 28.9509C26.9103 28.8617 27.1388 28.7241 27.334 28.546C28.7729 27.2592 30.5535 26.4164 32.4608 26.1193C34.3681 25.8222 36.3207 26.0835 38.0828 26.8716C39.8449 27.6597 41.3413 28.941 42.3913 30.5608C43.4412 32.1806 44 34.0697 44 36C44 36.5304 44.2107 37.0391 44.5858 37.4142C44.9609 37.7893 45.4696 38 46 38C46.5304 38 47.0391 37.7893 47.4142 37.4142C47.7893 37.0391 48 36.5304 48 36ZM35 18C33.22 18 31.4799 17.4722 29.9999 16.4832C28.5198 15.4943 27.3663 14.0887 26.6851 12.4442C26.0039 10.7996 25.8257 8.99002 26.1729 7.24419C26.5202 5.49836 27.3774 3.89472 28.636 2.63604C29.8947 1.37737 31.4984 0.520203 33.2442 0.172936C34.99 -0.17433 36.7996 0.00389957 38.4441 0.685088C40.0887 1.36628 41.4943 2.51983 42.4832 3.99987C43.4722 5.47991 44 7.21997 44 9C43.9974 11.3861 43.0483 13.6738 41.361 15.361C39.6738 17.0483 37.3861 17.9974 35 18ZM35 4C34.0111 4 33.0444 4.29325 32.2221 4.84266C31.3999 5.39206 30.759 6.17296 30.3806 7.08659C30.0022 8.00022 29.9031 9.00555 30.0961 9.97545C30.289 10.9454 30.7652 11.8363 31.4645 12.5355C32.1637 13.2348 33.0546 13.711 34.0245 13.9039C34.9945 14.0969 35.9998 13.9978 36.9134 13.6194C37.827 13.241 38.6079 12.6001 39.1573 11.7779C39.7068 10.9556 40 9.98891 40 9C40 7.67392 39.4732 6.40215 38.5355 5.46447C37.5979 4.52679 36.3261 4 35 4Z" fill="#063852"/>
</svg>
