<?xml version="1.0" encoding="UTF-8"?>
<svg version="1.1" xmlns="http://www.w3.org/2000/svg" width="341" height="512">
<path d="M0 0 C0 0.99 0 1.98 0 3 C1.3303125 2.4740625 1.3303125 2.4740625 2.6875 1.9375 C6.15011381 0.95751496 7.70949919 0.57708073 11 2 C17.57692951 11.01282933 16.69427187 26.38599317 17.625 37.25 C17.75999062 38.78519377 17.8954046 40.32035038 18.03125 41.85546875 C18.35903591 45.56989789 18.68113378 49.28479322 19 53 C20.07435303 52.67765381 21.14870605 52.35530762 22.25561523 52.02319336 C34.36621981 48.71384057 45.75733533 51.01320682 57 56 C58.76811848 56.74765764 60.53635681 57.49503189 62.3046875 58.2421875 C73.11181608 62.89957171 82.55170841 67.96265178 92 75 C93.98651506 76.33282188 95.98608157 77.64645825 98 78.9375 C98.845625 79.48277344 99.69125 80.02804687 100.5625 80.58984375 C102.98252084 81.98988786 105.38080693 83.03183399 108 84 C108 84.33 108 84.66 108 85 C106.845 85.0825 105.69 85.165 104.5 85.25 C103.8503125 85.29640625 103.200625 85.3428125 102.53125 85.390625 C95.12284199 84.24735216 88.66154438 78.8911782 82.64453125 74.7109375 C78.25592036 71.71159337 73.79830966 69.29299754 69 67 C69.08564209 67.88445801 69.17128418 68.76891602 69.25952148 69.68017578 C70.93354059 87.112129 72.45685222 104.48816649 73 122 C86.45930722 122.91282459 99.92540812 123.28944409 113.40942383 123.60717773 C114.87451232 123.64434486 116.33960023 123.68153476 117.8046875 123.71875 C119.09358887 123.74904297 120.38249023 123.77933594 121.71044922 123.81054688 C127.15439843 123.99765067 132.57599121 124.51522147 138 125 C138.02551693 117.24447336 138.04293653 109.48895768 138.05493164 101.73339844 C138.0599364 99.09927974 138.06674223 96.46516378 138.07543945 93.83105469 C138.08767491 90.02798787 138.09326704 86.22495803 138.09765625 82.421875 C138.10281754 81.25887878 138.10797882 80.09588257 138.11329651 78.89764404 C138.11337204 77.77738831 138.11344757 76.65713257 138.11352539 75.50292969 C138.115746 74.53474304 138.11796661 73.5665564 138.12025452 72.56903076 C137.94504149 67.36888768 137.43209344 62.1851213 137 57 C122.15 56.505 122.15 56.505 107 56 C113.45139628 61.74362002 113.45139628 61.74362002 120 67.375 C123.21619994 70.18917495 123.83098748 70.73240614 124.375 74.8125 C124 78 124 78 121.9375 80.9375 C119 83 119 83 115.5625 83.1875 C111.39827373 81.79942458 108.24922644 79.87266004 106 76 C106.15625 73.92578125 106.15625 73.92578125 107 72 C110 70 110 70 113 70 C112.67 71.65 112.34 73.3 112 75 C115.25397508 77.25885324 115.25397508 77.25885324 119 78 C118.76090395 73.38032283 116.81960448 71.42719356 113.59423828 68.44555664 C112.98563965 67.90664795 112.37704102 67.36773926 111.75 66.8125 C111.12464355 66.24587646 110.49928711 65.67925293 109.85498047 65.09545898 C103.06746156 59.02425811 95.87341682 53.54778614 88.515625 48.19140625 C87.80921875 47.67449219 87.1028125 47.15757812 86.375 46.625 C85.48941406 45.99464844 85.48941406 45.99464844 84.5859375 45.3515625 C82.65321488 43.70446391 81.29055759 42.19476991 80 40 C80.03515625 37.87109375 80.03515625 37.87109375 81 36 C82.93359375 34.91015625 82.93359375 34.91015625 85.4375 34.0625 C90.12337905 32.38417656 94.34327684 30.29742578 98.67578125 27.85546875 C101.51166601 26.81167251 103.13713328 27.17407562 106 28 C102.52177005 32.0640371 98.48459497 33.99144763 93.75 36.25 C93.00492188 36.61351562 92.25984375 36.97703125 91.4921875 37.3515625 C89.66501913 38.24172145 87.83298166 39.1218739 86 40 C88.05420321 41.65719761 90.11727705 43.30052759 92.1875 44.9375 C92.76564453 45.40607422 93.34378906 45.87464844 93.93945312 46.35742188 C94.50986328 46.80537109 95.08027344 47.25332031 95.66796875 47.71484375 C96.18641357 48.12855225 96.7048584 48.54226074 97.23901367 48.96850586 C101.82837449 51.65671458 107.1439864 51.10529259 112.29296875 51.02734375 C113.90820107 51.01470836 115.52343555 51.00234662 117.13867188 50.99023438 C119.67349031 50.96532761 122.20819571 50.93722912 124.74291992 50.90405273 C127.19711045 50.87395887 129.65115333 50.85611962 132.10546875 50.83984375 C133.24764107 50.81965431 133.24764107 50.81965431 134.41288757 50.79905701 C136.27644106 50.79011894 138.13990182 50.88621845 140 51 C143.95344946 54.95344946 143.12570617 61.48406028 143.12939453 66.80566406 C143.13254669 68.1168219 143.13569885 69.42797974 143.13894653 70.77886963 C143.13715718 72.19112177 143.13510633 73.60337359 143.1328125 75.015625 C143.13348691 76.47816992 143.13445808 77.94071474 143.13571167 79.40325928 C143.13718032 82.45602494 143.13505969 85.50876121 143.13037109 88.56152344 C143.12465399 92.47447147 143.12797054 96.38735121 143.13394356 100.30029678 C143.13755441 103.31484494 143.13640851 106.32937684 143.13381577 109.34392548 C143.133149 110.78722898 143.13396619 112.23053397 143.13629532 113.67383575 C143.13883259 115.68652824 143.13428023 117.69922591 143.12939453 119.71191406 C143.12859894 120.8566217 143.12780334 122.00132935 143.12698364 123.1807251 C143 126 143 126 142 129 C143.09014404 128.96970703 144.18028809 128.93941406 145.3034668 128.90820312 C155.14824399 128.63817269 164.99313818 128.400019 174.83947754 128.1943512 C179.81056306 128.0864026 184.77689699 127.942763 189.74476624 127.73410034 C192.95396683 127.60600104 196.16451662 127.52666223 199.375 127.4375 C200.50510498 127.37433594 201.63520996 127.31117188 202.79956055 127.24609375 C211.76684333 127.07224866 216.28050246 130.37192644 223 136 C224.54912914 137.1074873 226.11093362 138.19755774 227.6875 139.265625 C228.40550781 139.76320313 229.12351562 140.26078125 229.86328125 140.7734375 C231.31622385 141.77748193 232.77207073 142.77733378 234.23046875 143.7734375 C241.12363956 148.56977858 241.12363956 148.56977858 243 152 C243 152.99 243 153.98 243 155 C243.01154442 156.69791786 243.02329007 158.39583436 243.03515625 160.09375 C243.04448703 162.22916573 243.05359182 164.36458246 243.0625 166.5 C243.07087891 167.51964844 243.07925781 168.53929687 243.08789062 169.58984375 C243.10504253 175.19508563 242.98104993 180.76638602 242.64065456 186.36007214 C241.97783599 197.32435875 241.86907745 208.24935968 241.90234375 219.23046875 C241.90421574 221.08661358 241.90563593 222.94275891 241.90663147 224.79890442 C241.9103953 229.61389605 241.9201708 234.42885606 241.93133545 239.24383545 C241.94168383 244.18533908 241.94615744 249.12684796 241.95117188 254.06835938 C241.96180055 263.71225325 241.97880023 273.35612396 242 283 C240.35 283 238.7 283 237 283 C237 258.91 237 234.82 237 210 C214.47581741 210.03928856 214.47581741 210.03928856 191.95166016 210.09008789 C174.27514115 210.11595167 156.6591272 209.89601032 139 209 C138.81304565 210.81201904 138.81304565 210.81201904 138.62231445 212.66064453 C138.54759918 213.38044495 138.47288391 214.10024536 138.39590454 214.84185791 C138.2419025 216.34426293 138.09573708 217.84747599 137.95385742 219.35107422 C137.73691168 221.24834177 137.37031933 223.12661985 137 225 C133.8519186 227.09872094 133.13077319 227.24939115 129.54443359 227.24291992 C128.64695404 227.24599655 127.74947449 227.24907318 126.82479858 227.25224304 C125.85909943 227.24505753 124.89340027 227.23787201 123.8984375 227.23046875 C122.90623199 227.23001053 121.91402649 227.22955231 120.89175415 227.2290802 C118.79533695 227.22605937 116.69892196 227.21817811 114.60253906 227.20581055 C111.38077922 227.18753279 108.15930632 227.18530101 104.9375 227.18554688 C102.90364333 227.18063253 100.86978862 227.17480458 98.8359375 227.16796875 C97.86618988 227.16685593 96.89644226 227.1657431 95.89730835 227.16459656 C95.00613312 227.15821671 94.11495789 227.15183685 93.19677734 227.14526367 C92.4086264 227.14145187 91.62047546 227.13764008 90.80844116 227.13371277 C89 227 89 227 88 226 C87.90044896 224.06461065 87.87031332 222.12544231 87.875 220.1875 C87.87242187 219.12917969 87.86984375 218.07085937 87.8671875 216.98046875 C87.98028987 214.44231854 88.34194851 212.42734086 89 210 C88.28656433 210.1417012 87.57312866 210.2834024 86.83807373 210.42939758 C79.0978035 211.85737911 71.6868301 212.27926989 63.828125 212.23046875 C62.59906937 212.23046371 61.37001373 212.23045868 60.10371399 212.23045349 C56.82618724 212.2275725 53.54888627 212.21547747 50.2714119 212.19763947 C48.23797852 212.1874397 46.20456321 212.18075107 44.17111206 212.17523193 C28.9668295 212.13330352 13.76125018 212.06443285 -1.4375 211.625 C-2.55415039 211.5943042 -3.67080078 211.5636084 -4.82128906 211.53198242 C-15.25051957 211.15209416 -25.6213422 210.05256019 -36 209 C-35.98747192 209.60260651 -35.97494385 210.20521301 -35.96203613 210.82608032 C-35.82955805 217.22010045 -35.70030658 223.61418055 -35.57275391 230.00830078 C-35.52504331 232.38006164 -35.47656744 234.75180725 -35.42724609 237.12353516 C-35.1098216 252.41821309 -34.93015489 267.70198063 -35 283 C-36.32 283 -37.64 283 -39 283 C-39.75358717 271.66843755 -40.10649994 260.41547919 -40.01803589 249.06039429 C-39.8799255 229.93268935 -40.12170673 210.81236024 -40.4375 191.6875 C-40.45723877 190.40465118 -40.47697754 189.12180237 -40.49731445 187.80007935 C-40.55496926 184.09970249 -40.61832834 180.3994684 -40.68359375 176.69921875 C-40.70866249 175.06389694 -40.70866249 175.06389694 -40.73423767 173.39553833 C-40.86020969 166.78806571 -41.28322378 160.28331044 -41.99035645 153.71086121 C-42 151 -42 151 -39.97265625 147.7890625 C-39.01230469 147.07492187 -38.05195312 146.36078125 -37.0625 145.625 C-36.05058594 144.82964844 -35.03867187 144.03429687 -33.99609375 143.21484375 C-32.51302734 142.11849609 -32.51302734 142.11849609 -31 141 C-29.52837932 139.74457735 -28.06815863 138.47553985 -26.625 137.1875 C-26.03976563 136.68605469 -25.45453125 136.18460938 -24.8515625 135.66796875 C-22.85118896 133.97930153 -22.85118896 133.97930153 -21.1139679 131.43122864 C-16.41266676 127.76069049 -12.13012652 128.338651 -6.32495117 128.43237305 C-5.144039 128.43164291 -3.96312683 128.43091278 -2.74642944 128.43016052 C0.48294589 128.43304274 3.71123132 128.45807828 6.94038987 128.49303031 C10.31825901 128.5243334 13.69615065 128.52722762 17.07414246 128.53315735 C23.46676378 128.54868436 29.85895645 128.58969673 36.25138921 128.6399048 C43.53062884 128.69583434 50.80988918 128.72329373 58.08929026 128.74838197 C73.05976549 128.80061408 88.02983983 128.8885335 103 129 C102.1121582 128.94465088 101.22431641 128.88930176 100.30957031 128.83227539 C97.00696081 128.62461982 93.70459768 128.4136469 90.40234375 128.20043945 C88.97469374 128.10894419 87.54695897 128.01876131 86.11914062 127.92993164 C84.06356345 127.80181593 82.00834008 127.66894054 79.953125 127.53515625 C78.71723633 127.456604 77.48134766 127.37805176 76.20800781 127.29711914 C73.66818396 127.06188584 71.43317729 126.72517183 69 126 C67.95123062 120.57441893 67.61444073 115.1723768 67.28125 109.66796875 C67.21844849 108.67678543 67.15564697 107.68560211 67.09094238 106.66438293 C66.89105399 103.50559666 66.69516862 100.34658115 66.5 97.1875 C66.30451049 94.03915349 66.10807766 90.89087747 65.90905762 87.74275208 C65.78558505 85.78836713 65.66412615 83.83385353 65.54504395 81.87919617 C65.3794834 79.25133381 65.19591666 76.62576262 65 74 C64.93969604 73.1438208 64.87939209 72.2876416 64.81726074 71.40551758 C64.74736938 70.59840332 64.67747803 69.79128906 64.60546875 68.9597168 C64.51785278 67.88828682 64.51785278 67.88828682 64.4284668 66.79521179 C64.10921432 64.68523606 64.10921432 64.68523606 61.59375 62.9140625 C60.5728125 62.48867188 59.551875 62.06328125 58.5 61.625 C56.99953125 60.96371094 56.99953125 60.96371094 55.46875 60.2890625 C54.3240625 59.86367188 53.179375 59.43828125 52 59 C51.349104 58.72857178 50.69820801 58.45714355 50.02758789 58.17749023 C43.48835217 55.65199743 37.38177326 55.64925307 30.4375 55.8125 C28.78137695 55.83280273 28.78137695 55.83280273 27.09179688 55.85351562 C24.39400728 55.88855185 21.69727364 55.93767409 19 56 C19.02102783 56.65194336 19.04205566 57.30388672 19.0637207 57.97558594 C19.19437325 65.24836342 18.42997902 72.09332086 17.1875 79.25 C17.02185547 80.28640625 16.85621094 81.3228125 16.68554688 82.390625 C15.73853325 87.99408676 14.64470976 92.94783677 12 98 C8.93123661 99.63667381 6.28150447 98.82037612 3 98 C2.87625 98.804375 2.7525 99.60875 2.625 100.4375 C2.41875 101.283125 2.2125 102.12875 2 103 C-0.72562227 104.36281114 -3.13307587 104.34273743 -6.17578125 104.578125 C-7.46572998 104.68471436 -8.75567871 104.79130371 -10.0847168 104.90112305 C-11.11863052 104.98588394 -11.11863052 104.98588394 -12.1734314 105.07235718 C-25.55495596 106.1836501 -38.66882559 107.91312065 -51.87036133 110.37402344 C-52.99982178 110.58446289 -54.12928223 110.79490234 -55.29296875 111.01171875 C-56.2780542 111.20209717 -57.26313965 111.39247559 -58.27807617 111.58862305 C-61 112 -61 112 -66 112 C-66 78.34 -66 44.68 -66 10 C-60.95958491 8.5598814 -56.20363779 7.4124176 -51.0625 6.625 C-50.27979736 6.5027002 -49.49709473 6.38040039 -48.69067383 6.25439453 C-38.80282739 4.75485985 -28.8706166 3.56519311 -18.94360352 2.35791016 C-17.92736404 2.23388824 -17.92736404 2.23388824 -16.89059448 2.10736084 C-15.03294851 1.88118664 -13.1750514 1.65707786 -11.31713867 1.43310547 C-9.10336831 1.14406237 -6.89448927 0.81475534 -4.69262695 0.44580078 C-2 0 -2 0 0 0 Z M2 7 C2.28345895 11.97967197 2.5758913 16.95874796 2.875 21.9375 C2.91913025 22.67506531 2.9632605 23.41263062 3.00872803 24.17254639 C3.49395864 32.18771563 4.00920231 40.16808207 5.125 48.125 C7.09758468 63.42035898 6.43859813 78.80230809 4 94 C5.65 94 7.3 94 9 94 C19.08023669 68.65783191 17.51058375 32.75870014 9 7 C5.41672247 5.99782936 5.41672247 5.99782936 2 7 Z M-23 44 C-21.63676257 46.0399719 -21.63676257 46.0399719 -20 48 C-19.34 48 -18.68 48 -18 48 C-18.33 49.98 -18.66 51.96 -19 54 C-18.01 53.67 -17.02 53.34 -16 53 C-14.8491686 48.92920792 -14.8491686 48.92920792 -16.125 45.125 C-18.53722513 43.67766492 -20.2351335 43.77582164 -23 44 Z M-29 47 C-29.67673447 50.40320934 -29.67673447 50.40320934 -30 54 C-28.04366025 56.41121859 -28.04366025 56.41121859 -24.375 56.125 C-23.26125 56.08375 -22.1475 56.0425 -21 56 C-21.61875 55.690625 -22.2375 55.38125 -22.875 55.0625 C-24.25 54.375 -25.625 53.6875 -27 53 C-27.625 49.9375 -27.625 49.9375 -28 47 C-28.33 47 -28.66 47 -29 47 Z M-22 48 C-22.33 48.66 -22.66 49.32 -23 50 C-22.34 50 -21.68 50 -21 50 C-21.33 49.34 -21.66 48.68 -22 48 Z M46.6650238 132.85771179 C39.7544614 132.79946736 32.84402527 132.77900725 25.93323231 132.77421665 C21.56663376 132.76913808 17.20242702 132.74359285 12.8364563 132.66665649 C-6.07549396 131.44025834 -6.07549396 131.44025834 -22.83276367 138.28277588 C-25.23787786 140.69238051 -27.11535824 143.16205692 -29 146 C-29.66 146.66 -30.32 147.32 -31 148 C-23.7768901 148.08560269 -16.55605278 148.10028296 -9.33251953 148.06713867 C-6.87871086 148.06406858 -4.4248265 148.07685461 -1.97119141 148.10620117 C1.5700765 148.1457403 5.10714968 148.12704628 8.6484375 148.09765625 C10.277173 148.13452293 10.277173 148.13452293 11.93881226 148.1721344 C18.1345051 148.08303261 18.1345051 148.08303261 23.28917313 144.96667576 C24.02674221 144.15561847 24.76431129 143.34456118 25.52423096 142.50892639 C31.53228337 136.87643427 36.52991254 136.6858665 44.52099609 136.74365234 C45.83942001 136.7181279 47.15784393 136.69260345 48.51622009 136.66630554 C52.10561046 136.59901258 55.69310432 136.5875326 59.28304625 136.58914137 C63.05863445 136.58374209 66.83371438 136.53455268 70.60903931 136.49258423 C76.94878985 136.42937673 83.28788481 136.4037263 89.62792969 136.39941406 C96.9306308 136.39387281 104.23058136 136.32350323 111.53249109 136.21938169 C117.82831867 136.13137069 124.12372514 136.07919925 130.42012656 136.05620348 C134.16896112 136.04246305 137.91661963 136.01681106 141.66505051 135.95853806 C145.19368725 135.90564171 148.71973203 135.89815252 152.24864388 135.92379189 C154.1405625 135.92710654 156.03240299 135.886369 157.92384338 135.84370422 C167.72662623 135.9877113 172.86500062 139.76562536 180 146 C183.20045476 148.13363651 183.98629436 148.24672228 187.6550293 148.22705078 C188.59577805 148.22689972 189.53652679 148.22674866 190.50578308 148.22659302 C191.51836685 148.21627045 192.53095062 148.20594788 193.57421875 148.1953125 C194.61318802 148.1924826 195.65215729 148.18965271 196.72261047 148.18673706 C200.04435697 148.17553282 203.36583485 148.15042764 206.6875 148.125 C208.93814715 148.11497052 211.18879852 148.10584462 213.43945312 148.09765625 C218.95972722 148.0755927 224.47984442 148.04211271 230 148 C226.23099204 144.95484655 222.37141246 142.11226881 218.375 139.375 C217.80265625 138.98054687 217.2303125 138.58609375 216.640625 138.1796875 C210.77040167 133.91359741 210.77040167 133.91359741 203.85157776 132.75276184 C202.24814514 132.74646067 202.24814514 132.74646067 200.61231995 132.7400322 C198.84851234 132.7484709 198.84851234 132.7484709 197.04907227 132.75708008 C195.80676849 132.75523838 194.56446472 132.75339668 193.28451538 132.75149918 C189.85065499 132.74853062 186.41702662 132.75458406 182.98319364 132.76453328 C179.33009886 132.77295961 175.6770121 132.76976666 172.02391052 132.76817322 C163.34915939 132.76704476 154.67449137 132.78471246 145.99977112 132.80644798 C143.57064878 132.81247977 141.14152585 132.81814185 138.71240234 132.82368469 C124.99622792 132.85509864 111.28004836 132.88712816 97.5639199 132.93489611 C80.59629484 132.99359879 63.63241733 133.00195097 46.6650238 132.85771179 Z M27.10656357 150.40616608 C24.65069236 150.43717559 22.19480917 150.46703982 19.73892212 150.49676514 C-1.0005311 150.73380155 -1.0005311 150.73380155 -21.7265625 151.47265625 C-22.48971771 151.50975204 -23.25287292 151.54684784 -24.03915405 151.58506775 C-28.43556279 151.83045209 -32.61599966 152.37371424 -37 153 C-36.67 170.49 -36.34 187.98 -36 206 C-10.21796929 206.98624033 15.51047592 207.12396425 41.30853271 207.06866455 C46.70698644 207.05823705 52.10544525 207.05382635 57.50390625 207.04882812 C68.00261697 207.03826177 78.50130595 207.02130935 89 207 C89.03758423 206.00818726 89.03758423 206.00818726 89.07592773 204.99633789 C89.19153102 202.01817695 89.31441754 199.0403608 89.4375 196.0625 C89.47681641 195.02158203 89.51613281 193.98066406 89.55664062 192.90820312 C89.59853516 191.91884766 89.64042969 190.92949219 89.68359375 189.91015625 C89.72025146 188.99371338 89.75690918 188.07727051 89.79467773 187.13305664 C90 185 90 185 91 184 C101.74990113 183.5072875 112.62301114 184.16927202 123.375 184.5 C124.9973902 184.54836657 126.61978602 184.59654473 128.2421875 184.64453125 C132.16152638 184.76085668 136.08078106 184.87970397 140 185 C139.835 186.0725 139.67 187.145 139.5 188.25 C138.78839274 193.82258642 138.91588954 199.39263574 139 205 C171.66999985 205.67283876 204.32264381 206.17478836 237 206 C237.86223658 194.52618434 238.28347056 183.07773406 238.55224609 171.5769043 C238.60398188 169.41183267 238.66109238 167.24695205 238.71875 165.08203125 C238.74904297 163.81593018 238.77933594 162.5498291 238.81054688 161.24536133 C238.96318235 158.63069204 239.35037725 156.50595753 240 154 C236.02111684 150.02111684 222.75505141 151.79336319 217.49973869 151.73963928 C215.41524561 151.71824085 213.3308856 151.69124955 211.24647522 151.66296387 C206.81020442 151.6037571 202.37386613 151.55148751 197.9375 151.5 C192.81141313 151.44014332 187.6853904 151.37725017 182.55941963 151.30812073 C180.5370432 151.28217623 178.51460666 151.26105496 176.49217224 151.2401123 C170.00340554 151.15477134 163.55768339 150.9349137 157.08300781 150.49072266 C148.7861731 149.92197135 140.52064537 149.85493983 132.20703125 149.8671875 C130.60126217 149.86612432 128.99549328 149.8647362 127.38972473 149.86305237 C123.08963878 149.86026302 118.78959037 149.86462546 114.48950958 149.87122726 C111.7950689 149.87502457 109.10063177 149.87707501 106.40618896 149.87869263 C79.97131 149.89734297 53.53931059 150.07052517 27.10656357 150.40616608 Z M95 188 C93.28505274 192.28736816 92.71787134 194.41327963 92.55078125 198.81640625 C92.50759766 199.91017578 92.46441406 201.00394531 92.41992188 202.13085938 C92.38447266 203.26330078 92.34902344 204.39574219 92.3125 205.5625 C92.26544922 206.69880859 92.21839844 207.83511719 92.16992188 209.00585938 C91.83769453 215.57925674 91.83769453 215.57925674 93 222 C98.37498274 222.16742247 103.75010924 222.32800169 109.12548828 222.48217773 C110.95497166 222.53562295 112.78440093 222.59095425 114.61376953 222.64819336 C117.23979016 222.73003411 119.86592919 222.80514096 122.4921875 222.87890625 C123.31306854 222.90594131 124.13394958 222.93297638 124.97970581 222.96083069 C129.11973184 223.19094272 129.11973184 223.19094272 133 222 C133.46886105 220.18348959 133.46886105 220.18348959 133.6328125 217.984375 C133.71660156 217.14390625 133.80039063 216.3034375 133.88671875 215.4375 C133.96535156 214.550625 134.04398438 213.66375 134.125 212.75 C134.21136719 211.90953125 134.29773438 211.0690625 134.38671875 210.203125 C135.06519912 203.05215728 135 196.26453862 135 189 C115.2 188.505 115.2 188.505 95 188 Z " fill="#DFD5DD" transform="translate(66,229)"/>
<path d="M0 0 C2.81106251 1.76008144 5.29365637 3.84897817 7.8125 6 C8.52664062 6.59796387 9.24078125 7.19592773 9.9765625 7.81201172 C18.75691143 15.2299619 28.17665392 23.44003894 32.96484375 34.16015625 C34.2977459 36.5292012 35.89076301 37.26880759 38.1875 38.6875 C41.41730712 41.39166039 41.95926332 42.57762498 42.37109375 46.84765625 C42.22919358 51.27154397 41.67719616 55.62956715 41 60 C40.82082031 61.17175781 40.64164062 62.34351563 40.45703125 63.55078125 C40.02588404 66.05013838 39.55067 68.52465817 39 71 C37.515 70.01 37.515 70.01 36 69 C35.91333008 66.68432617 35.91333008 66.68432617 36.26953125 63.79296875 C37.66849148 52.40525397 37.66849148 52.40525397 34.65234375 41.70996094 C31.06697811 37.79774149 26.71578293 35.02760136 22.18164062 32.32470703 C18.80254395 30.27289654 15.69989325 27.89813014 12.5625 25.5 C10.98662109 24.37078125 10.98662109 24.37078125 9.37890625 23.21875 C6.75001614 20.76684593 6.2422947 19.5288049 6 16 C11.26170694 17.41167747 14.72171358 19.74850232 19 23 C9.30269339 13.38618714 9.30269339 13.38618714 -2 6 C-5.89278932 6.43633821 -8.66043276 7.74427707 -12 9.73828125 C-12.9593042 10.30562988 -13.9186084 10.87297852 -14.90698242 11.45751953 C-15.92767822 12.06966309 -16.94837402 12.68180664 -18 13.3125 C-20.16252945 14.58763137 -22.32529439 15.86236343 -24.48828125 17.13671875 C-27.65063037 19.01016607 -30.81082102 20.88699086 -33.96630859 22.77197266 C-60.11074076 38.35746849 -60.11074076 38.35746849 -71 36 C-71 35.34 -71 34.68 -71 34 C-70.25878906 33.81566406 -69.51757812 33.63132813 -68.75390625 33.44140625 C-49.92345982 28.25554279 -33.32076122 16.6233871 -16.73925781 6.63867188 C-14.81075553 5.47884792 -12.87526158 4.33175998 -10.9375 3.1875 C-9.89464844 2.56230469 -8.85179687 1.93710938 -7.77734375 1.29296875 C-4.65240959 -0.16181776 -3.37187846 -0.7398002 0 0 Z " fill="#DFD5DD" transform="translate(153,209)"/>
<path d="M0 0 C-0.5 1.875 -0.5 1.875 -2 4 C-10.78539293 6.92846431 -20.18546174 7.16331103 -29.375 7.5 C-30.42413574 7.53988037 -31.47327148 7.57976074 -32.55419922 7.62084961 C-53.69372994 8.35907829 -74.85161817 8.62493513 -96 9 C-96 7.68 -96 6.36 -96 5 C-95.34585617 4.97938507 -94.69171234 4.95877014 -94.01774597 4.93753052 C-87.05497334 4.71696346 -80.09249765 4.48827263 -73.13012695 4.25537109 C-70.55011354 4.17005763 -67.97003629 4.08664852 -65.38989258 4.00537109 C-51.61598792 3.57015117 -37.86125365 3.02279559 -24.11328125 2.0546875 C-23.00929489 1.98049591 -21.90530853 1.90630432 -20.76786804 1.8298645 C-16.21781209 1.48719208 -11.90091863 1.08076 -7.49291992 -0.12841797 C-4.12805415 -0.96804688 -3.12872617 -0.9736792 0 0 Z " fill="#E0D6DE" transform="translate(336,147)"/>
<path d="M0 0 C-0.5625 1.875 -0.5625 1.875 -2 4 C-7.67442644 6.12311969 -12.9941258 6.32294426 -19.0078125 6.37890625 C-19.96912079 6.39590073 -20.93042908 6.4128952 -21.92086792 6.43040466 C-24.98884534 6.48323883 -28.05681754 6.52356122 -31.125 6.5625 C-35.12768606 6.62167689 -39.13025956 6.68635106 -43.1328125 6.75390625 C-44.60334076 6.77778915 -44.60334076 6.77778915 -46.10357666 6.80215454 C-56.08009373 6.98326 -66.03727094 7.46033598 -76 8 C-76 6.68 -76 5.36 -76 4 C-69.56048035 2.88802852 -63.16059761 2.72079237 -56.63671875 2.53515625 C-54.19855956 2.45663272 -51.76040876 2.37784856 -49.32226562 2.29882812 C-45.50440087 2.17935886 -41.68649876 2.06247062 -37.8684082 1.95043945 C-34.16590588 1.8402132 -30.46385198 1.71957618 -26.76171875 1.59765625 C-25.06749031 1.55222435 -25.06749031 1.55222435 -23.33903503 1.50587463 C-17.40906934 1.30415778 -11.89344307 0.76127369 -6.12947083 -0.6811676 C-3.78507585 -1.03217925 -2.23835992 -0.72317464 0 0 Z " fill="#DFD5DD" transform="translate(76,147)"/>
<path d="M0 0 C1.2109375 2.05078125 1.2109375 2.05078125 2 4 C1.43152344 3.96519531 0.86304688 3.93039063 0.27734375 3.89453125 C-5.19488949 3.70268334 -9.22312163 4.02571724 -14 7 C-14.860458 8.32421133 -15.66767071 9.68362855 -16.4375 11.0625 C-19.7496632 16.63706976 -24.60184968 19.20362497 -30.17553711 22.19750977 C-35.51801902 25.19911171 -38.19552845 28.5734274 -41 34 C-42.32 33.67 -43.64 33.34 -45 33 C-41.39327054 24.43401752 -36.16423341 19.93569662 -28.375 15.0625 C-24.37259708 12.50617074 -22.13530521 9.7059434 -19.46875 5.83203125 C-16.68020617 2.3537678 -13.08463897 0.84688458 -9 -0.8125 C-5.80060716 -1.11244308 -3.11697731 -0.75038343 0 0 Z " fill="#DFD5DD" transform="translate(282,116)"/>
<path d="M0 0 C2.14133263 2.87972319 3.34740869 5.4760069 4 9 C4.928125 8.938125 5.85625 8.87625 6.8125 8.8125 C10 9 10 9 11.875 10.125 C13.52149743 12.86916239 13.39964378 14.8694571 13 18 C12.01 18.66 11.02 19.32 10 20 C9.505 17.03 9.505 17.03 9 14 C8.36191406 14.01160156 7.72382813 14.02320313 7.06640625 14.03515625 C6.24011719 14.04417969 5.41382813 14.05320313 4.5625 14.0625 C3.32693359 14.07990234 3.32693359 14.07990234 2.06640625 14.09765625 C0 14 0 14 -1 13 C-1.16096386 11.00404809 -1.3187931 9.00738419 -1.42578125 7.0078125 C-2.23488464 4.17870268 -3.47045501 3.42726063 -6 2 C-13.12848348 0.63339954 -18.75978121 2.76250035 -25 6 C-28.07936101 7.33885261 -29.63753532 8 -33 8 C-33 7.01 -33 6.02 -33 5 C-30.75243216 3.84917315 -28.50218252 2.70423142 -26.25 1.5625 C-25.29867188 1.07426758 -25.29867188 1.07426758 -24.328125 0.57617188 C-16.41395027 -3.42213515 -7.80562064 -5.3895952 0 0 Z " fill="#DFD5DE" transform="translate(318,126)"/>
<path d="M0 0 C0.66 1.32 1.32 2.64 2 4 C0.2675 3.87625 0.2675 3.87625 -1.5 3.75 C-6.42342935 3.80209978 -10.1166459 4.91546212 -14 8 C-15.1414745 9.54194407 -16.2211451 11.13073685 -17.25 12.75 C-20.67025547 18.10104484 -24.73375427 20.88085808 -30.1328125 24.11328125 C-34.57745073 27.03802276 -37.94942708 30.66497532 -41 35 C-41.5071058 31.844675 -41.76033626 30.04134504 -41 27 C-38.37972842 23.82598911 -35.30242306 21.43506562 -32 19 C-31.38511719 18.54109375 -30.77023438 18.0821875 -30.13671875 17.609375 C-26.43397887 15 -26.43397887 15 -24 15 C-23.79375 14.319375 -23.5875 13.63875 -23.375 12.9375 C-18.32628137 2.1516011 -11.39739119 -0.53893093 0 0 Z " fill="#DFD5DD" transform="translate(41,111)"/>
<path d="M0 0 C3.41311667 2.52570633 4.66637768 3.99913304 6 8 C6.0685495 9.89470816 6.08480372 11.7916834 6.0625 13.6875 C6.05347656 14.68136719 6.04445313 15.67523438 6.03515625 16.69921875 C6.02355469 17.45847656 6.01195313 18.21773437 6 19 C5.01 19.33 4.02 19.66 3 20 C3.02320312 19.40832031 3.04640625 18.81664062 3.0703125 18.20703125 C3.2185951 11.87266037 3.2185951 11.87266037 1 6 C-5.94919934 2.52540033 -15.10749316 5.79859097 -22 8 C-22.33 7.01 -22.66 6.02 -23 5 C-21.56328432 4.35242375 -20.12559584 3.70700547 -18.6875 3.0625 C-17.88699219 2.70285156 -17.08648437 2.34320313 -16.26171875 1.97265625 C-10.86387795 -0.34869497 -5.81763367 -0.77398343 0 0 Z " fill="#DFD5DD" transform="translate(65,123)"/>
<path d="M0 0 C0.99 0 1.98 0 3 0 C2.35834253 3.13360409 1.27390401 5.53926091 -0.328125 8.30078125 C-0.79863281 9.11353516 -1.26914063 9.92628906 -1.75390625 10.76367188 C-2.24761719 11.60478516 -2.74132812 12.44589844 -3.25 13.3125 C-3.72824219 14.14201172 -4.20648438 14.97152344 -4.69921875 15.82617188 C-7.56732783 20.75014776 -10.6116643 25.41832709 -14 30 C-14.99 29.67 -15.98 29.34 -17 29 C-15.56627922 26.04192335 -13.98168915 23.22519338 -12.28515625 20.41015625 C-11.50301758 19.10981445 -11.50301758 19.10981445 -10.70507812 17.78320312 C-10.16302734 16.88537109 -9.62097656 15.98753906 -9.0625 15.0625 C-8.25522461 13.72155273 -8.25522461 13.72155273 -7.43164062 12.35351562 C-6.42523624 10.68196604 -5.418226 9.01078096 -4.41040039 7.34008789 C-3.39555221 5.65628665 -2.43455797 3.93959937 -1.50952148 2.20483398 C-0.76230835 1.11344116 -0.76230835 1.11344116 0 0 Z " fill="#DFD5DD" transform="translate(229,180)"/>
<path d="M0 0 C0.99 0.66 1.98 1.32 3 2 C-10.79263006 19.29552023 -10.79263006 19.29552023 -15.9375 20.9375 C-16.618125 20.958125 -17.29875 20.97875 -18 21 C-16.48795929 17.27029958 -14.30171831 15.32084149 -11.25 12.75 C-6.8156535 8.87476675 -3.27324162 4.8832507 0 0 Z " fill="#DFD5DD" transform="translate(257,197)"/>
<path d="M0 0 C1.32 0.66 2.64 1.32 4 2 C4 2.66 4 3.32 4 4 C5.65 3.67 7.3 3.34 9 3 C9 5 9 7 9 9 C8.43152344 9.12117188 7.86304688 9.24234375 7.27734375 9.3671875 C2.45754536 10.41322054 -2.2732934 11.59204484 -7 13 C-5.5361389 8.60841671 -3.02168662 8.12052567 1 6 C0.67 4.02 0.34 2.04 0 0 Z " fill="#DFD5DD" transform="translate(225,399)"/>
<path d="M0 0 C5.625 2.25 5.625 2.25 8 6 C6.68 6 5.36 6 4 6 C3.67 9.96 3.34 13.92 3 18 C2.01 17.67 1.02 17.34 0 17 C0 11.39 0 5.78 0 0 Z " fill="#E0D5DD" transform="translate(169,260)"/>
<path d="M0 0 C0.99 0 1.98 0 3 0 C3 0.66 3 1.32 3 2 C3.99 2 4.98 2 6 2 C6 1.34 6 0.68 6 0 C7.32 0.33 8.64 0.66 10 1 C9.67 2.98 9.34 4.96 9 7 C6.03 7.66 3.06 8.32 0 9 C0 8.01 0 7.02 0 6 C0.66 6 1.32 6 2 6 C1.34 4.02 0.68 2.04 0 0 Z " fill="#DFD5DD" transform="translate(214,460)"/>
<path d="M0 0 C0.99 0.33 1.98 0.66 3 1 C2.01 1.495 2.01 1.495 1 2 C0.55527344 2.90492188 0.55527344 2.90492188 0.1015625 3.828125 C-1.15382753 6.30329117 -2.63147781 7.83031196 -4.625 9.75 C-5.57246094 10.67039062 -5.57246094 10.67039062 -6.5390625 11.609375 C-7.02117187 12.06828125 -7.50328125 12.5271875 -8 13 C-8.99 12.67 -9.98 12.34 -11 12 C-10.45730469 11.46890625 -9.91460937 10.9378125 -9.35546875 10.390625 C-8.64003906 9.68421875 -7.92460938 8.9778125 -7.1875 8.25 C-6.47980469 7.55390625 -5.77210937 6.8578125 -5.04296875 6.140625 C-3.17724121 4.18571355 -1.56830358 2.19661447 0 0 Z " fill="#DFD5DD" transform="translate(122,465)"/>
<path d="M0 0 C0.66 0.33 1.32 0.66 2 1 C0.73548068 2.31858428 -0.53685475 3.62967631 -1.8125 4.9375 C-2.52019531 5.66839844 -3.22789063 6.39929688 -3.95703125 7.15234375 C-6 9 -6 9 -9 10 C-7.61811547 6.78956118 -6.07578097 4.95063635 -3.375 2.75 C-2.74335937 2.22921875 -2.11171875 1.7084375 -1.4609375 1.171875 C-0.73777344 0.59179688 -0.73777344 0.59179688 0 0 Z " fill="#E0D6DE" transform="translate(124,406)"/>
<path d="" fill="#DED5DE" transform="translate(0,0)"/>
</svg>
